<svg width="20" height="20" viewBox="0 0 20 20" fill="none" xmlns="http://www.w3.org/2000/svg">
<mask id="path-1-inside-1_9340_132598" fill="white">
<path fill-rule="evenodd" clip-rule="evenodd" d="M4.73242 3.82813C4.73242 3.69005 4.84435 3.57812 4.98242 3.57812H7.9451C8.35931 3.57812 8.6951 3.24234 8.6951 2.82812C8.6951 2.41391 8.35931 2.07812 7.9451 2.07812H4.98242C4.01592 2.07812 3.23242 2.86163 3.23242 3.82813V16.1725C3.23242 17.5838 4.81713 18.4146 5.97785 17.6119L9.84022 14.9406C9.92579 14.8815 10.0391 14.8815 10.1246 14.9406L13.987 17.6119C15.1477 18.4146 16.7324 17.5838 16.7324 16.1725V12.6311C16.7324 12.2169 16.3966 11.8811 15.9824 11.8811C15.5682 11.8811 15.2324 12.2169 15.2324 12.6311V16.1725C15.2324 16.3742 15.006 16.4928 14.8402 16.3782L10.9778 13.707C10.3789 13.2927 9.58597 13.2927 8.98699 13.707L5.12463 16.3782C4.95881 16.4928 4.73242 16.3742 4.73242 16.1725V3.82813ZM11.9479 9.15031C13.2041 9.87555 14.7682 9.58418 15.6876 8.53145L10.614 5.6022C10.162 6.92478 10.6917 8.42506 11.9479 9.15031ZM11.4404 4.34731L16.3611 7.18827C16.6244 5.95636 16.0832 4.64314 14.9334 3.97928C13.7835 3.31543 12.3757 3.50337 11.4404 4.34731ZM11.1979 10.4493C13.3433 11.688 16.0865 10.9529 17.3252 8.80754C18.5638 6.66216 17.8288 3.91888 15.6834 2.68025C13.538 1.44161 10.7947 2.17667 9.55608 4.32205C8.31745 6.46743 9.05251 9.21071 11.1979 10.4493Z"/>
</mask>
<path fill-rule="evenodd" clip-rule="evenodd" d="M4.73242 3.82813C4.73242 3.69005 4.84435 3.57812 4.98242 3.57812H7.9451C8.35931 3.57812 8.6951 3.24234 8.6951 2.82812C8.6951 2.41391 8.35931 2.07812 7.9451 2.07812H4.98242C4.01592 2.07812 3.23242 2.86163 3.23242 3.82813V16.1725C3.23242 17.5838 4.81713 18.4146 5.97785 17.6119L9.84022 14.9406C9.92579 14.8815 10.0391 14.8815 10.1246 14.9406L13.987 17.6119C15.1477 18.4146 16.7324 17.5838 16.7324 16.1725V12.6311C16.7324 12.2169 16.3966 11.8811 15.9824 11.8811C15.5682 11.8811 15.2324 12.2169 15.2324 12.6311V16.1725C15.2324 16.3742 15.006 16.4928 14.8402 16.3782L10.9778 13.707C10.3789 13.2927 9.58597 13.2927 8.98699 13.707L5.12463 16.3782C4.95881 16.4928 4.73242 16.3742 4.73242 16.1725V3.82813ZM11.9479 9.15031C13.2041 9.87555 14.7682 9.58418 15.6876 8.53145L10.614 5.6022C10.162 6.92478 10.6917 8.42506 11.9479 9.15031ZM11.4404 4.34731L16.3611 7.18827C16.6244 5.95636 16.0832 4.64314 14.9334 3.97928C13.7835 3.31543 12.3757 3.50337 11.4404 4.34731ZM11.1979 10.4493C13.3433 11.688 16.0865 10.9529 17.3252 8.80754C18.5638 6.66216 17.8288 3.91888 15.6834 2.68025C13.538 1.44161 10.7947 2.17667 9.55608 4.32205C8.31745 6.46743 9.05251 9.21071 11.1979 10.4493Z" fill="#4E5969"/>
<path d="M5.97785 17.6119L5.47075 16.8786L5.97785 17.6119ZM9.84022 14.9406L10.3473 15.6739L10.3473 15.6739L9.84022 14.9406ZM10.1246 14.9406L10.6317 14.2074L10.6317 14.2074L10.1246 14.9406ZM13.987 17.6119L14.4941 16.8786V16.8786L13.987 17.6119ZM14.8402 16.3782L15.3473 15.6449L15.3473 15.6449L14.8402 16.3782ZM10.9778 13.707L10.4707 14.4402L10.9778 13.707ZM8.98699 13.707L8.4799 12.9737H8.47989L8.98699 13.707ZM5.12463 16.3782L5.63173 17.1114H5.63173L5.12463 16.3782ZM15.6876 8.53145L16.3591 9.11788L17.0721 8.3014L16.1333 7.75939L15.6876 8.53145ZM11.9479 9.15031L11.5021 9.92237L11.9479 9.15031ZM10.614 5.6022L11.0597 4.83014L10.1209 4.28813L9.77038 5.31391L10.614 5.6022ZM16.3611 7.18827L15.9154 7.96033L16.9768 8.57315L17.2329 7.37458L16.3611 7.18827ZM11.4404 4.34731L10.8432 3.68545L9.93327 4.50656L10.9947 5.11938L11.4404 4.34731ZM14.9334 3.97928L14.4876 4.75135L14.9334 3.97928ZM17.3252 8.80754L18.0972 9.25329V9.25329L17.3252 8.80754ZM11.1979 10.4493L10.7521 11.2214H10.7521L11.1979 10.4493ZM15.6834 2.68025L15.2376 3.45231V3.45231L15.6834 2.68025ZM9.55608 4.32205L10.3281 4.7678L9.55608 4.32205ZM4.98242 2.68662C4.35199 2.68662 3.84092 3.19769 3.84092 3.82813H5.62392C5.62392 4.18242 5.33671 4.46963 4.98242 4.46963V2.68662ZM7.9451 2.68662H4.98242V4.46963H7.9451V2.68662ZM7.8036 2.82812C7.8036 2.74998 7.86695 2.68662 7.9451 2.68662V4.46963C8.85168 4.46963 9.5866 3.7347 9.5866 2.82812H7.8036ZM7.9451 2.96963C7.86695 2.96963 7.8036 2.90627 7.8036 2.82812H9.5866C9.5866 1.92155 8.85168 1.18662 7.9451 1.18662V2.96963ZM4.98242 2.96963H7.9451V1.18662H4.98242V2.96963ZM4.12392 3.82813C4.12392 3.35399 4.50829 2.96963 4.98242 2.96963V1.18662C3.52356 1.18662 2.34092 2.36927 2.34092 3.82813H4.12392ZM4.12392 16.1725V3.82813H2.34092V16.1725H4.12392ZM5.47075 16.8786C4.90133 17.2724 4.12392 16.8649 4.12392 16.1725H2.34092C2.34092 18.3028 4.73292 19.5568 6.48495 18.3451L5.47075 16.8786ZM9.33312 14.2074L5.47075 16.8786L6.48495 18.3451L10.3473 15.6739L9.33312 14.2074ZM10.6317 14.2074C10.241 13.9372 9.72382 13.9372 9.33312 14.2074L10.3473 15.6739C10.1278 15.8257 9.83709 15.8257 9.61753 15.6739L10.6317 14.2074ZM14.4941 16.8786L10.6317 14.2074L9.61753 15.6739L13.4799 18.3451L14.4941 16.8786ZM15.8409 16.1725C15.8409 16.8649 15.0635 17.2724 14.4941 16.8786L13.4799 18.3451C15.2319 19.5568 17.6239 18.3028 17.6239 16.1725H15.8409ZM15.8409 12.6311V16.1725H17.6239V12.6311H15.8409ZM15.9824 12.7727C15.9043 12.7727 15.8409 12.7093 15.8409 12.6311H17.6239C17.6239 11.7246 16.889 10.9896 15.9824 10.9896V12.7727ZM16.1239 12.6311C16.1239 12.7093 16.0606 12.7727 15.9824 12.7727V10.9896C15.0758 10.9896 14.3409 11.7246 14.3409 12.6311H16.1239ZM16.1239 16.1725V12.6311H14.3409V16.1725H16.1239ZM14.3331 17.1114C15.0902 17.635 16.1239 17.0931 16.1239 16.1725H14.3409C14.3409 15.6552 14.9218 15.3507 15.3473 15.6449L14.3331 17.1114ZM10.4707 14.4402L14.3331 17.1114L15.3473 15.6449L11.4849 12.9737L10.4707 14.4402ZM9.49409 14.4402C9.78793 14.237 10.1769 14.237 10.4707 14.4402L11.4849 12.9737C10.5808 12.3484 9.384 12.3484 8.4799 12.9737L9.49409 14.4402ZM5.63173 17.1114L9.49409 14.4402L8.47989 12.9737L4.61753 15.6449L5.63173 17.1114ZM3.84092 16.1725C3.84092 17.0931 4.8746 17.635 5.63173 17.1114L4.61753 15.6449C5.04302 15.3507 5.62392 15.6552 5.62392 16.1725H3.84092ZM3.84092 3.82813V16.1725H5.62392V3.82813H3.84092ZM15.0161 7.94502C14.3716 8.68306 13.2738 8.88642 12.3936 8.37824L11.5021 9.92237C13.1343 10.8647 15.1648 10.4853 16.3591 9.11788L15.0161 7.94502ZM10.1682 6.37427L15.2418 9.30352L16.1333 7.75939L11.0597 4.83014L10.1682 6.37427ZM12.3936 8.37824C11.5135 7.87007 11.1407 6.81773 11.4576 5.8905L9.77038 5.31391C9.18328 7.03184 9.86999 8.98005 11.5021 9.92237L12.3936 8.37824ZM16.8069 6.4162L11.8862 3.57525L10.9947 5.11938L15.9154 7.96033L16.8069 6.4162ZM14.4876 4.75135C15.2929 5.21629 15.6742 6.13698 15.4893 7.00196L17.2329 7.37458C17.5746 5.77574 16.8735 4.06999 15.3791 3.20722L14.4876 4.75135ZM12.0377 5.00917C12.6944 4.4166 13.6823 4.28641 14.4876 4.75135L15.3791 3.20722C13.8848 2.34445 12.057 2.59013 10.8432 3.68545L12.0377 5.00917ZM16.5531 8.36179C15.5607 10.0808 13.3626 10.6697 11.6436 9.67728L10.7521 11.2214C13.3239 12.7062 16.6124 11.8251 18.0972 9.25329L16.5531 8.36179ZM15.2376 3.45231C16.9566 4.44476 17.5456 6.64281 16.5531 8.36179L18.0972 9.25329C19.5821 6.68151 18.7009 3.393 16.1291 1.90818L15.2376 3.45231ZM10.3281 4.7678C11.3206 3.04882 13.5186 2.45986 15.2376 3.45231L16.1291 1.90818C13.5574 0.423367 10.2688 1.30452 8.78402 3.8763L10.3281 4.7678ZM11.6436 9.67728C9.92466 8.68483 9.33569 6.48678 10.3281 4.7678L8.78402 3.8763C7.2992 6.44807 8.18036 9.73659 10.7521 11.2214L11.6436 9.67728Z" fill="#4E5969" mask="url(#path-1-inside-1_9340_132598)"/>
</svg>
