<svg width="20" height="20" viewBox="0 0 20 20" fill="none" xmlns="http://www.w3.org/2000/svg">
<path fill-rule="evenodd" clip-rule="evenodd" d="M10.4664 8.925C12.068 8.925 13.3664 7.62663 13.3664 6.025C13.3664 4.42337 12.068 3.125 10.4664 3.125C8.86478 3.125 7.56641 4.42337 7.56641 6.025C7.56641 7.62663 8.86478 8.925 10.4664 8.925ZM10.4664 10.425C12.8965 10.425 14.8664 8.45505 14.8664 6.025C14.8664 3.59495 12.8965 1.625 10.4664 1.625C8.03635 1.625 6.06641 3.59495 6.06641 6.025C6.06641 8.45505 8.03635 10.425 10.4664 10.425ZM7.59632 13.1461C5.57669 13.1461 3.93945 14.7833 3.93945 16.8029C3.93945 16.8437 3.97252 16.8768 4.01332 16.8768H9.6184C10.0326 16.8768 10.3684 17.2126 10.3684 17.6268C10.3684 18.041 10.0326 18.3768 9.6184 18.3768H4.01332C3.1441 18.3768 2.43945 17.6722 2.43945 16.8029C2.43945 13.9549 4.74826 11.6461 7.59632 11.6461H9.6184C10.0326 11.6461 10.3684 11.9819 10.3684 12.3961C10.3684 12.8103 10.0326 13.1461 9.6184 13.1461H7.59632ZM12.4245 12.6581C12.7173 12.3653 13.1922 12.3653 13.4851 12.6581L15.0827 14.2557L16.6782 12.6602C16.9711 12.3673 17.446 12.3673 17.7389 12.6602C18.0318 12.9531 18.0318 13.428 17.7389 13.7209L16.1434 15.3164L17.7278 16.9008C18.0206 17.1937 18.0206 17.6686 17.7278 17.9614C17.4349 18.2543 16.96 18.2543 16.6671 17.9614L15.0827 16.3771L13.4963 17.9635C13.2034 18.2564 12.7285 18.2564 12.4356 17.9635C12.1427 17.6706 12.1427 17.1957 12.4356 16.9029L14.0221 15.3164L12.4245 13.7188C12.1316 13.4259 12.1316 12.951 12.4245 12.6581Z" fill="#4E5969"/>
</svg>
