<svg width="20" height="20" viewBox="0 0 20 20" fill="none" xmlns="http://www.w3.org/2000/svg">
<path fill-rule="evenodd" clip-rule="evenodd" d="M10.3984 3.25C6.67052 3.25 3.64844 6.27208 3.64844 10C3.64844 13.7279 6.67052 16.75 10.3984 16.75C14.1264 16.75 17.1484 13.7279 17.1484 10C17.1484 6.27208 14.1264 3.25 10.3984 3.25ZM2.14844 10C2.14844 5.44365 5.84209 1.75 10.3984 1.75C14.9548 1.75 18.6484 5.44365 18.6484 10C18.6484 14.5563 14.9548 18.25 10.3984 18.25C5.84209 18.25 2.14844 14.5563 2.14844 10ZM8.14844 7.36719C7.73422 7.36719 7.39844 7.70297 7.39844 8.11719V8.61719C7.39844 9.0314 7.73422 9.36719 8.14844 9.36719C8.56265 9.36719 8.89844 9.0314 8.89844 8.61719V8.11719C8.89844 7.70297 8.56265 7.36719 8.14844 7.36719ZM12.6484 7.36719C12.2342 7.36719 11.8984 7.70297 11.8984 8.11719V8.61719C11.8984 9.0314 12.2342 9.36719 12.6484 9.36719C13.0627 9.36719 13.3984 9.0314 13.3984 8.61719V8.11719C13.3984 7.70297 13.0627 7.36719 12.6484 7.36719ZM8.81526 14.2434C9.69394 13.3648 11.1186 13.3648 11.9972 14.2434C12.2901 14.5363 12.765 14.5363 13.0579 14.2434C13.3508 13.9506 13.3508 13.4757 13.0579 13.1828C11.5934 11.7183 9.21907 11.7183 7.7546 13.1828C7.46171 13.4757 7.46171 13.9506 7.7546 14.2434C8.04749 14.5363 8.52237 14.5363 8.81526 14.2434Z" fill="#4E5969"/>
</svg>
