<svg width="20" height="20" viewBox="0 0 20 20" fill="none" xmlns="http://www.w3.org/2000/svg">
<path fill-rule="evenodd" clip-rule="evenodd" d="M10.9422 3.33711L18.1759 15.8662C18.1913 15.893 18.1918 15.9073 18.1917 15.915C18.1914 15.9272 18.1876 15.9458 18.1759 15.9662C18.1641 15.9866 18.1499 15.9992 18.1394 16.0055C18.1328 16.0094 18.1202 16.0162 18.0893 16.0162H3.62192C3.59101 16.0162 3.57838 16.0094 3.5718 16.0055C3.56129 15.9992 3.54707 15.9866 3.53532 15.9662C3.52356 15.9458 3.51976 15.9272 3.51954 15.915C3.51941 15.9073 3.51986 15.893 3.53532 15.8662L10.769 3.33711C10.7845 3.31034 10.7966 3.30279 10.8033 3.29907C10.8141 3.29312 10.8321 3.28711 10.8556 3.28711C10.8791 3.28711 10.8971 3.29312 10.9079 3.29907C10.9146 3.30279 10.9267 3.31034 10.9422 3.33711ZM9.46996 2.58711C10.0858 1.52044 11.6254 1.52044 12.2412 2.58711L19.4749 15.1162C20.0908 16.1829 19.321 17.5162 18.0893 17.5162H3.62192C2.39024 17.5162 1.62044 16.1829 2.23628 15.1162L9.46996 2.58711ZM10.8556 6.61484C11.2698 6.61484 11.6056 6.95063 11.6056 7.36484L11.6056 11.9547C11.6056 12.3689 11.2698 12.7047 10.8556 12.7047C10.4414 12.7047 10.1056 12.3689 10.1056 11.9547L10.1056 7.36484C10.1056 6.95063 10.4414 6.61484 10.8556 6.61484ZM11.6056 14.1012C11.6056 14.5154 11.2698 14.8512 10.8556 14.8512C10.4414 14.8512 10.1056 14.5154 10.1056 14.1012C10.1056 13.687 10.4414 13.3512 10.8556 13.3512C11.2698 13.3512 11.6056 13.687 11.6056 14.1012Z" fill="#4E5969"/>
</svg>
